<?xml version="1.0" encoding="UTF-8"?>
<svg width="199px" height="63px" viewBox="0 0 199 63" version="1.1" xmlns="http://www.w3.org/2000/svg" xmlns:xlink="http://www.w3.org/1999/xlink">
    <!-- Generator: Sketch 42 (36781) - http://www.bohemiancoding.com/sketch -->
    <title>Group 2</title>
    <desc>Created with Sketch.</desc>
    <defs></defs>
    <g id="Page-1" stroke="none" stroke-width="1" fill="none" fill-rule="evenodd">
        <g id="Group-2" transform="translate(0.000000, -12.000000)">
            <g id="Group-Copy" transform="translate(0.000000, 12.000000)" fill="#6FC4EF">
                <ellipse id="Oval-Copy" cx="32.0394575" cy="31.4208543" rx="13.1787916" ry="13.2173367"></ellipse>
                <path d="M25.4453607,0.692215963 L28.578992,8.41085677 L35.2301942,8.42708783 L38.1297781,0.692215963 C38.1297781,0.692215963 35.0307458,0.0555598387 31.8367268,0.0555598387 C28.6427078,0.0555598387 25.4453607,0.692215963 25.4453607,0.692215963 Z" id="Path-2-Copy-9"></path>
                <path d="M25.4453607,55.223623 L28.578992,62.9422638 L35.2301942,62.9584949 L38.1297781,55.223623 C38.1297781,55.223623 35.0307458,54.5869669 31.8367268,54.5869669 C28.6427078,54.5869669 25.4453607,55.223623 25.4453607,55.223623 Z" id="Path-2-Copy-10" transform="translate(31.787569, 58.772731) scale(1, -1) translate(-31.787569, -58.772731) "></path>
                <path d="M10.1042694,50.1320175 L13.2379007,57.8506583 L19.889103,57.8668894 L22.7886868,50.1320175 C22.7886868,50.1320175 19.6896546,49.4953614 16.4956356,49.4953614 C13.3016165,49.4953614 10.1042694,50.1320175 10.1042694,50.1320175 Z" id="Path-2-Copy-11" transform="translate(16.446478, 53.681125) scale(1, -1) rotate(-35.000000) translate(-16.446478, -53.681125) "></path>
                <path d="M-0.224645499,36.6835815 L2.90898582,44.4022223 L9.56018804,44.4184534 L12.4597719,36.6835815 C12.4597719,36.6835815 9.36073967,36.0469254 6.16672064,36.0469254 C2.97270161,36.0469254 -0.224645499,36.6835815 -0.224645499,36.6835815 Z" id="Path-2-Copy-12" transform="translate(6.117563, 40.232689) scale(1, -1) rotate(-70.000000) translate(-6.117563, -40.232689) "></path>
                <path d="M-0.279053637,19.0221812 L2.85457768,26.740822 L9.5057799,26.7570531 L12.4053637,19.0221812 C12.4053637,19.0221812 9.30633154,18.3855251 6.1123125,18.3855251 C2.91829347,18.3855251 -0.279053637,19.0221812 -0.279053637,19.0221812 Z" id="Path-2-Copy-13" transform="translate(6.063155, 22.571289) scale(1, -1) rotate(-109.000000) translate(-6.063155, -22.571289) "></path>
                <path d="M9.89064427,5.57730057 L13.0242756,13.2959414 L19.6754778,13.3121724 L22.5750617,5.57730057 C22.5750617,5.57730057 19.4760294,4.94064444 16.2820104,4.94064444 C13.0879914,4.94064444 9.89064427,5.57730057 9.89064427,5.57730057 Z" id="Path-2-Copy-14" transform="translate(16.232853, 9.126408) scale(1, -1) rotate(-143.000000) translate(-16.232853, -9.126408) "></path>
                <path d="M41.3501079,5.75305973 L44.4837392,13.4717005 L51.1349414,13.4879316 L54.0345253,5.75305973 C54.0345253,5.75305973 50.9354931,5.11640361 47.741474,5.11640361 C44.547455,5.11640361 41.3501079,5.75305973 41.3501079,5.75305973 Z" id="Path-2-Copy-15" transform="translate(47.692317, 9.302168) scale(1, -1) rotate(-214.000000) translate(-47.692317, -9.302168) "></path>
                <path d="M51.3647467,19.0572936 L54.4983781,26.7759344 L61.1495803,26.7921655 L64.0491641,19.0572936 C64.0491641,19.0572936 60.9501319,18.4206375 57.7561129,18.4206375 C54.5620938,18.4206375 51.3647467,19.0572936 51.3647467,19.0572936 Z" id="Path-2-Copy-16" transform="translate(57.706955, 22.606401) scale(1, -1) rotate(-249.000000) translate(-57.706955, -22.606401) "></path>
                <path d="M51.5315162,36.7395623 L54.6651475,44.4582032 L61.3163497,44.4744342 L64.2159335,36.7395623 C64.2159335,36.7395623 61.1169013,36.1029062 57.9228823,36.1029062 C54.7288633,36.1029062 51.5315162,36.7395623 51.5315162,36.7395623 Z" id="Path-2-Copy-17" transform="translate(57.873725, 40.288670) scale(1, -1) rotate(-290.000000) translate(-57.873725, -40.288670) "></path>
                <path d="M41.4741795,50.2778102 L44.6078108,57.996451 L51.2590131,58.0126821 L54.1585969,50.2778102 C54.1585969,50.2778102 51.0595647,49.6411541 47.8655457,49.6411541 C44.6715266,49.6411541 41.4741795,50.2778102 41.4741795,50.2778102 Z" id="Path-2-Copy-18" transform="translate(47.816388, 53.826918) scale(1, -1) rotate(-323.000000) translate(-47.816388, -53.826918) "></path>
            </g>
            <text id="ARC" font-family="OpenSans-Semibold, Open Sans" font-size="64" font-weight="500" fill="#444444">
                <tspan x="77" y="68">ARC</tspan>
            </text>
            <g id="Group-Copy-3" transform="translate(0.000000, 12.000000)" fill="#24CAE8">
                <ellipse id="Oval-Copy-3" cx="32.0394575" cy="31.4208543" rx="13.1787916" ry="13.2173367"></ellipse>
                <path d="M25.4453607,0.692215963 L28.578992,8.41085677 L35.2301942,8.42708783 L38.1297781,0.692215963 C38.1297781,0.692215963 35.0307458,0.0555598387 31.8367268,0.0555598387 C28.6427078,0.0555598387 25.4453607,0.692215963 25.4453607,0.692215963 Z" id="Path-2-Copy-29"></path>
                <path d="M25.4453607,55.223623 L28.578992,62.9422638 L35.2301942,62.9584949 L38.1297781,55.223623 C38.1297781,55.223623 35.0307458,54.5869669 31.8367268,54.5869669 C28.6427078,54.5869669 25.4453607,55.223623 25.4453607,55.223623 Z" id="Path-2-Copy-30" transform="translate(31.787569, 58.772731) scale(1, -1) translate(-31.787569, -58.772731) "></path>
                <path d="M10.1042694,50.1320175 L13.2379007,57.8506583 L19.889103,57.8668894 L22.7886868,50.1320175 C22.7886868,50.1320175 19.6896546,49.4953614 16.4956356,49.4953614 C13.3016165,49.4953614 10.1042694,50.1320175 10.1042694,50.1320175 Z" id="Path-2-Copy-31" transform="translate(16.446478, 53.681125) scale(1, -1) rotate(-35.000000) translate(-16.446478, -53.681125) "></path>
                <path d="M-0.224645499,36.6835815 L2.90898582,44.4022223 L9.56018804,44.4184534 L12.4597719,36.6835815 C12.4597719,36.6835815 9.36073967,36.0469254 6.16672064,36.0469254 C2.97270161,36.0469254 -0.224645499,36.6835815 -0.224645499,36.6835815 Z" id="Path-2-Copy-32" transform="translate(6.117563, 40.232689) scale(1, -1) rotate(-70.000000) translate(-6.117563, -40.232689) "></path>
                <path d="M-0.279053637,19.0221812 L2.85457768,26.740822 L9.5057799,26.7570531 L12.4053637,19.0221812 C12.4053637,19.0221812 9.30633154,18.3855251 6.1123125,18.3855251 C2.91829347,18.3855251 -0.279053637,19.0221812 -0.279053637,19.0221812 Z" id="Path-2-Copy-33" transform="translate(6.063155, 22.571289) scale(1, -1) rotate(-109.000000) translate(-6.063155, -22.571289) "></path>
                <path d="M9.89064427,5.57730057 L13.0242756,13.2959414 L19.6754778,13.3121724 L22.5750617,5.57730057 C22.5750617,5.57730057 19.4760294,4.94064444 16.2820104,4.94064444 C13.0879914,4.94064444 9.89064427,5.57730057 9.89064427,5.57730057 Z" id="Path-2-Copy-34" transform="translate(16.232853, 9.126408) scale(1, -1) rotate(-143.000000) translate(-16.232853, -9.126408) "></path>
                <path d="M41.3501079,5.75305973 L44.4837392,13.4717005 L51.1349414,13.4879316 L54.0345253,5.75305973 C54.0345253,5.75305973 50.9354931,5.11640361 47.741474,5.11640361 C44.547455,5.11640361 41.3501079,5.75305973 41.3501079,5.75305973 Z" id="Path-2-Copy-35" transform="translate(47.692317, 9.302168) scale(1, -1) rotate(-214.000000) translate(-47.692317, -9.302168) "></path>
                <path d="M51.3647467,19.0572936 L54.4983781,26.7759344 L61.1495803,26.7921655 L64.0491641,19.0572936 C64.0491641,19.0572936 60.9501319,18.4206375 57.7561129,18.4206375 C54.5620938,18.4206375 51.3647467,19.0572936 51.3647467,19.0572936 Z" id="Path-2-Copy-36" transform="translate(57.706955, 22.606401) scale(1, -1) rotate(-249.000000) translate(-57.706955, -22.606401) "></path>
                <path d="M51.5315162,36.7395623 L54.6651475,44.4582032 L61.3163497,44.4744342 L64.2159335,36.7395623 C64.2159335,36.7395623 61.1169013,36.1029062 57.9228823,36.1029062 C54.7288633,36.1029062 51.5315162,36.7395623 51.5315162,36.7395623 Z" id="Path-2-Copy-37" transform="translate(57.873725, 40.288670) scale(1, -1) rotate(-290.000000) translate(-57.873725, -40.288670) "></path>
                <path d="M41.4741795,50.2778102 L44.6078108,57.996451 L51.2590131,58.0126821 L54.1585969,50.2778102 C54.1585969,50.2778102 51.0595647,49.6411541 47.8655457,49.6411541 C44.6715266,49.6411541 41.4741795,50.2778102 41.4741795,50.2778102 Z" id="Path-2-Copy-38" transform="translate(47.816388, 53.826918) scale(1, -1) rotate(-323.000000) translate(-47.816388, -53.826918) "></path>
            </g>
            <path d="M111.375,68 L106.8125,55.3125 L89.34375,55.3125 L84.875,68 L77,68 L94.09375,22.125 L102.21875,22.125 L119.3125,68 L111.375,68 Z M104.84375,48.875 L100.5625,36.4375 C100.249998,35.6041625 99.8177111,34.2916756 99.265625,32.5 C98.7135389,30.7083244 98.3333344,29.3958375 98.125,28.5625 C97.5624972,31.1250128 96.7395888,33.9270681 95.65625,36.96875 L91.53125,48.875 L104.84375,48.875 Z M132.8125,43.5625 L138,43.5625 C141.479184,43.5625 143.999992,42.9166731 145.5625,41.625 C147.125008,40.3333269 147.90625,38.4166794 147.90625,35.875 C147.90625,33.2916538 147.062508,31.4375056 145.375,30.3125 C143.687492,29.1874944 141.14585,28.625 137.75,28.625 L132.8125,28.625 L132.8125,43.5625 Z M132.8125,49.75 L132.8125,68 L125.34375,68 L125.34375,22.3125 L138.25,22.3125 C144.145863,22.3125 148.510403,23.4166556 151.34375,25.625 C154.177097,27.8333444 155.59375,31.1666444 155.59375,35.625 C155.59375,41.3125284 152.635446,45.3645713 146.71875,47.78125 L159.625,68 L151.125,68 L140.1875,49.75 L132.8125,49.75 Z M185.6875,28.0625 C181.395812,28.0625 178.020846,29.5833181 175.5625,32.625 C173.104154,35.6666819 171.875,39.8645566 171.875,45.21875 C171.875,50.8229447 173.05728,55.0624856 175.421875,57.9375 C177.78647,60.8125144 181.208311,62.25 185.6875,62.25 C187.62501,62.25 189.499991,62.0572936 191.3125,61.671875 C193.125009,61.2864564 195.010407,60.7916697 196.96875,60.1875 L196.96875,66.59375 C193.385399,67.9479234 189.322939,68.625 184.78125,68.625 C178.093717,68.625 172.958351,66.5989786 169.375,62.546875 C165.791649,58.4947714 164,52.6979544 164,45.15625 C164,40.4062263 164.869783,36.2500178 166.609375,32.6875 C168.348967,29.1249822 170.864567,26.3958428 174.15625,24.5 C177.447933,22.6041572 181.312478,21.65625 185.75,21.65625 C190.41669,21.65625 194.729147,22.6354069 198.6875,24.59375 L196,30.8125 C194.458326,30.0833297 192.828134,29.4427111 191.109375,28.890625 C189.390616,28.3385389 187.583343,28.0625 185.6875,28.0625 Z" id="ARC-Copy" fill="#444444"></path>
        </g>
    </g>
</svg>