<?xml version="1.0" encoding="UTF-8"?>
<svg width="796px" height="796px" viewBox="0 0 796 796" version="1.1" xmlns="http://www.w3.org/2000/svg" xmlns:xlink="http://www.w3.org/1999/xlink">
    <!-- Generator: Sketch 42 (36781) - http://www.bohemiancoding.com/sketch -->
    <title>Group</title>
    <desc>Created with Sketch.</desc>
    <defs></defs>
    <g id="Page-1" stroke="none" stroke-width="1" fill="none" fill-rule="evenodd">
        <g id="Group" transform="translate(-7.000000, 0.000000)" fill="#6FC4EF">
            <circle id="Oval" cx="406" cy="397" r="167"></circle>
            <path d="M322.44043,8.74609375 L362.149414,106.270508 L446.432617,106.475586 L483.175781,8.74609375 C483.175781,8.74609375 443.905232,0.701994153 403.431023,0.701994153 C362.956813,0.701994153 322.44043,8.74609375 322.44043,8.74609375 Z" id="Path-2"></path>
            <path d="M322.44043,697.746094 L362.149414,795.270508 L446.432617,795.475586 L483.175781,697.746094 C483.175781,697.746094 443.905232,689.701994 403.431023,689.701994 C362.956813,689.701994 322.44043,697.746094 322.44043,697.746094 Z" id="Path-2-Copy" transform="translate(402.808105, 742.588790) scale(1, -1) translate(-402.808105, -742.588790) "></path>
            <path d="M128.040039,633.414062 L167.749023,730.938477 L252.032227,731.143555 L288.775391,633.414062 C288.775391,633.414062 249.504842,625.369963 209.030632,625.369963 C168.556422,625.369963 128.040039,633.414062 128.040039,633.414062 Z" id="Path-2-Copy" transform="translate(208.407715, 678.256759) scale(1, -1) rotate(-35.000000) translate(-208.407715, -678.256759) "></path>
            <path d="M-2.84667969,463.494141 L36.8623047,561.018555 L121.145508,561.223633 L157.888672,463.494141 C157.888672,463.494141 118.618123,455.450041 78.1439131,455.450041 C37.6697032,455.450041 -2.84667969,463.494141 -2.84667969,463.494141 Z" id="Path-2-Copy-2" transform="translate(77.520996, 508.336837) scale(1, -1) rotate(-70.000000) translate(-77.520996, -508.336837) "></path>
            <path d="M-3.53613281,240.34375 L36.1728516,337.868164 L120.456055,338.073242 L157.199219,240.34375 C157.199219,240.34375 117.92867,232.29965 77.45446,232.29965 C36.9802501,232.29965 -3.53613281,240.34375 -3.53613281,240.34375 Z" id="Path-2-Copy-3" transform="translate(76.831543, 285.186446) scale(1, -1) rotate(-109.000000) translate(-76.831543, -285.186446) "></path>
            <path d="M125.333008,70.46875 L165.041992,167.993164 L249.325195,168.198242 L286.068359,70.46875 C286.068359,70.46875 246.797811,62.4246504 206.323601,62.4246504 C165.849391,62.4246504 125.333008,70.46875 125.333008,70.46875 Z" id="Path-2-Copy-4" transform="translate(205.700684, 115.311446) scale(1, -1) rotate(-143.000000) translate(-205.700684, -115.311446) "></path>
            <path d="M523.983398,72.6894531 L563.692383,170.213867 L647.975586,170.418945 L684.71875,72.6894531 C684.71875,72.6894531 645.448201,64.6453535 604.973991,64.6453535 C564.499781,64.6453535 523.983398,72.6894531 523.983398,72.6894531 Z" id="Path-2-Copy-5" transform="translate(604.351074, 117.532149) scale(1, -1) rotate(-214.000000) translate(-604.351074, -117.532149) "></path>
            <path d="M650.88765,240.787392 L690.596634,338.311806 L774.879837,338.516884 L811.623002,240.787392 C811.623002,240.787392 772.352453,232.743292 731.878243,232.743292 C691.404033,232.743292 650.88765,240.787392 650.88765,240.787392 Z" id="Path-2-Copy-6" transform="translate(731.255326, 285.630088) scale(1, -1) rotate(-249.000000) translate(-731.255326, -285.630088) "></path>
            <path d="M653.000931,464.201454 L692.709916,561.725869 L776.993119,561.930947 L813.736283,464.201454 C813.736283,464.201454 774.465734,456.157355 733.991524,456.157355 C693.517314,456.157355 653.000931,464.201454 653.000931,464.201454 Z" id="Path-2-Copy-7" transform="translate(733.368607, 509.044151) scale(1, -1) rotate(-290.000000) translate(-733.368607, -509.044151) "></path>
            <path d="M525.555619,635.256142 L565.264603,732.780556 L649.547806,732.985634 L686.29097,635.256142 C686.29097,635.256142 647.020421,627.212042 606.546212,627.212042 C566.072002,627.212042 525.555619,635.256142 525.555619,635.256142 Z" id="Path-2-Copy-8" transform="translate(605.923295, 680.098838) scale(1, -1) rotate(-323.000000) translate(-605.923295, -680.098838) "></path>
        </g>
    </g>
</svg>